<?xml version="1.0" standalone="no"?>
<!DOCTYPE svg PUBLIC "-//W3C//DTD SVG 20010904//EN"
 "http://www.w3.org/TR/2001/REC-SVG-20010904/DTD/svg10.dtd">
<svg version="1.0" xmlns="http://www.w3.org/2000/svg"
 width="144.000000pt" height="144.000000pt" viewBox="0 0 144.000000 144.000000"
 preserveAspectRatio="xMidYMid meet">
<metadata>
Created by potrace 1.14, written by Peter Selinger 2001-2017
</metadata>
<g transform="translate(0.000000,144.000000) scale(0.100000,-0.100000)"
fill="#000000" stroke="none">
<path d="M0 720 l0 -720 720 0 720 0 0 720 0 720 -720 0 -720 0 0 -720z m257
352 c9 -6 13 -54 15 -160 l3 -152 90 132 c130 191 128 188 185 188 60 0 80 -7
80 -30 0 -9 -47 -79 -105 -155 -58 -75 -105 -140 -105 -143 0 -4 50 -82 111
-173 65 -99 109 -175 107 -186 -3 -15 -13 -18 -73 -18 l-70 0 -110 172 -110
172 -5 -172 -5 -172 -65 0 -65 0 -3 344 c-2 269 1 346 10 353 17 10 99 10 115
0z m860 -16 c152 -48 233 -206 204 -397 -25 -160 -96 -242 -240 -275 -72 -18
-312 -19 -329 -2 -9 9 -12 99 -12 345 0 305 1 333 18 343 26 16 294 6 359 -14z"/>
<path d="M882 724 l3 -239 56 1 c87 2 127 13 165 46 52 46 67 89 68 193 0 105
-20 155 -80 201 -32 25 -47 28 -125 32 l-89 4 2 -238z"/>
</g>
</svg>
